<svg width="760" height="180" viewBox="0 0 760 180" fill="none"
     xmlns="http://www.w3.org/2000/svg">

  <rect x="1" y="1" width="758" height="178" rx="16"
        fill="#161B22"
        stroke="#30363D"
        stroke-width="2"/>

  <circle cx="78" cy="90" r="42"
          fill="#21262D"
          stroke="#30363D"
          stroke-width="2"/>

  <svg x="51" y="63" width="54" height="54" viewBox="0 0 24 24">
    <path
      fill="#C9D1D9"
      d="M12 .7a12 12 0 0 0-3.79 23.39c.6.11.82-.26.82-.58v-2.24c-3.34.73-4.04-1.42-4.04-1.42-.55-1.39-1.33-1.76-1.33-1.76-1.09-.74.08-.73.08-.73 1.2.09 1.84 1.24 1.84 1.24 1.07 1.83 2.8 1.3 3.49.99.11-.78.42-1.3.76-1.6-2.67-.3-5.47-1.33-5.47-5.93 0-1.31.47-2.38 1.24-3.22-.13-.3-.54-1.52.11-3.18 0 0 1.01-.32 3.3 1.23A11.5 11.5 0 0 1 12 6.49c1.02 0 2.05.14 3.01.4 2.29-1.55 3.3-1.23 3.3-1.23.65 1.66.24 2.88.12 3.18.77.84 1.23 1.91 1.23 3.22 0 4.61-2.81 5.62-5.48 5.92.43.37.81 1.1.81 2.22v3.3c0 .32.22.69.82.58A12 12 0 0 0 12 .7Z"/>
  </svg>

  <text x="145" y="78"
        fill="#F0F6FC"
        font-size="30"
        font-weight="700"
        font-family="Segoe UI, Arial, sans-serif">
    GitHub
  </text>

  <text x="145" y="108"
        fill="#C9D1D9"
        font-size="20"
        font-family="Segoe UI, Arial, sans-serif">
    @Vini150cius
  </text>

  <text x="145" y="137"
        fill="#8B949E"
        font-size="16"
        font-family="Segoe UI, Arial, sans-serif">
    Projetos, estudos e desenvolvimento
  </text>

  <path d="M680 78 L696 90 L680 102"
        stroke="#8B949E"
        stroke-width="3"
        stroke-linecap="round"
        stroke-linejoin="round"/>

</svg>
